<?xml version="1.0" encoding="UTF-8"?>
<svg width="233.9" height="199.99" version="1.0" viewBox="0 0 175.43 149.99" xmlns="http://www.w3.org/2000/svg" xmlns:xlink="http://www.w3.org/1999/xlink" zoomAndPan="magnify">
 <defs>
  <clipPath id="b70aaa2a61">
   <path d="m386.88 107.26h175.43v102.74h-175.43z"/>
  </clipPath>
  <clipPath id="376ee61a49">
   <path d="m398.1 169.29h150.46v87.961h-150.46z"/>
  </clipPath>
 </defs>
 <rect x="-595.41" y="168.93" width="1350" height="450" fill="#fff"/>
 <g transform="translate(-386.88 -107.26)" clip-path="url(#b70aaa2a61)">
  <path d="m445.36 181.5c3.207 7.9219 6.4141 15.844 9.6211 23.762 1.457-8.1992 2.9141-16.395 4.375-24.594 0.50391-2.8281 4.1875-2.1211 5.0274 0 1.6758 4.1914 3.3476 8.3867 5.0195 12.582 2.6445-15.406 5.2852-30.812 7.9297-46.219 0.52343-3.0664 4.9297-2.0742 5.125 0.69141 8e-3 0.12891 0.0156 0.26172 0.0273 0.39062 1.4336 20.598 2.875 41.203 4.3086 61.801 1.3359-11.66 2.6758-23.32 4.0078-34.98 0.26562-2.3164 3.5781-3.8867 4.8633-1.3164 1.5234 3.0469 3.0469 6.0938 4.5742 9.1406h51.875c0.99218-1.4688 1.8711-2.875 2.6016-4.2031 4.1914-7.6289 7.7031-15.906 7.7031-24.809 0-25.672-20.805-46.484-46.422-46.484-18.004 0-33.617 10.172-41.352 25.219-7.7031-15.047-23.324-25.219-41.305-25.219-25.672 0-46.465 20.812-46.465 46.484 0 8.9023 3.5117 17.18 7.7226 24.809 0.0586 0.10547 0.125 0.21484 0.1836 0.32422 16.02 0.23437 32.039 0.46875 48.062 0.70703 1.2656 0.0195 2.0664 0.80859 2.5156 1.9141" fill="#fefce6"/>
 </g>
 <g transform="translate(-386.88 -107.26)" clip-path="url(#376ee61a49)">
  <path d="m496.38 186.68c-0.46094-0.92188-0.92188-1.8438-1.3828-2.7695-2.0742 18.102-4.1484 36.203-6.2226 54.301-0.37891 3.3047-4.9805 3.4102-5.2188 0-8e-3 -0.12891-0.0195-0.25782-0.0274-0.38672-1.5898-22.793-3.1797-45.586-4.7695-68.375-1.9453 11.336-3.8906 22.672-5.8359 34.008-0.48437 2.832-4.1914 2.1094-5.0312 0-1.6836-4.2305-3.3672-8.4531-5.0547-12.68-1.4492 8.168-2.9024 16.332-4.3555 24.5-0.50391 2.8359-4.1758 2.1055-5.0312 0-4.1172-10.168-8.2344-20.336-12.355-30.504-14.312-0.21094-28.625-0.42188-42.941-0.63282 19.035 26.922 75.629 73.395 76.395 73.109 0 0 0.0156-0.0391 0.10157-0.0391 0.0898 0 0.15625 0.0391 0.15625 0.0391 0.71093 0.27344 52.219-42.008 73.5-69.277h-49.672c-0.87109 0-1.8476-0.48438-2.2539-1.293" fill="#fefce6"/>
 </g>
</svg>
