<?xml version="1.0" standalone="no"?>
<!DOCTYPE svg PUBLIC "-//W3C//DTD SVG 20010904//EN"
 "http://www.w3.org/TR/2001/REC-SVG-20010904/DTD/svg10.dtd">
<svg version="1.0" xmlns="http://www.w3.org/2000/svg"
 width="1500.000000pt" height="500.000000pt" viewBox="0 0 1500.000000 500.000000"
 preserveAspectRatio="xMidYMid meet">

<g transform="translate(0.000000,500.000000) scale(0.100000,-0.100000)"
fill="#000000" stroke="none">
<path d="M8340 4323 c-175 -17 -343 -66 -452 -133 -26 -17 -51 -30 -54 -30
-15 0 -136 -94 -212 -165 l-82 -77 -68 54 c-37 30 -87 68 -112 84 -25 16 -47
31 -50 34 -23 23 -244 132 -310 152 -36 10 -78 25 -95 33 -139 62 -575 56
-697 -11 -14 -8 -33 -14 -41 -14 -8 0 -56 -20 -105 -45 -99 -49 -210 -144
-286 -244 -72 -94 -126 -231 -146 -371 -6 -41 -16 -89 -21 -106 -11 -38 -12
-261 0 -268 4 -3 11 -40 15 -83 13 -160 82 -400 141 -493 14 -22 25 -43 25
-47 0 -4 30 -52 67 -107 195 -291 603 -748 1014 -1132 277 -260 420 -380 560
-471 60 -38 78 -45 121 -45 53 1 155 42 214 87 17 13 48 33 68 45 43 24 146
104 253 197 40 35 76 63 80 63 4 0 26 17 48 39 22 21 101 97 175 168 190 182
400 398 400 410 0 5 15 23 33 40 46 43 257 291 280 330 10 18 23 33 28 33 5 0
9 5 9 10 0 6 26 45 59 88 32 42 68 94 79 114 12 20 32 55 47 77 37 59 79 156
99 231 10 36 22 74 27 85 35 78 50 422 25 582 -8 56 -20 110 -25 120 -5 10
-16 45 -26 78 -34 121 -103 238 -223 380 -62 73 -252 196 -357 229 -27 9 -59
21 -70 26 -55 26 -305 64 -380 58 -11 0 -36 -3 -55 -5z m300 -93 c478 -103
754 -440 777 -950 19 -435 -107 -722 -538 -1225 -142 -166 -177 -202 -399
-426 -329 -331 -587 -548 -788 -664 -120 -69 -148 -70 -242 -8 -295 194 -972
854 -1335 1303 -256 316 -349 492 -406 770 -21 99 -24 143 -24 320 0 192 2
211 27 302 60 213 175 371 343 468 247 142 577 170 870 74 114 -38 227 -92
337 -161 94 -59 220 -154 247 -186 25 -31 51 -18 139 71 198 197 433 312 687
336 70 6 217 -5 305 -24z"/>
</g>
</svg>
