<?xml version="1.0" encoding="UTF-8"?>
<svg width="176.4" height="119.45" version="1.1" viewBox="0 0 176.4 119.45" xmlns="http://www.w3.org/2000/svg">
 <g transform="translate(-.99997 -.98479)" fill="#fefce6">
  <path d="m52.21 60.39-51.02-29.58a0.39 0.39 0 0 1-0.19-0.33v-29.1a0.39 0.39 0 0 1 0.59-0.34l102.35 59.35a0.39 0.39 0 0 1 0 0.68l-102.34 59.31a0.39 0.39 0 0 1-0.59-0.34l-0.01-29.08a0.39 0.39 0 0 1 0.19-0.33l51.02-29.56a0.39 0.39 0 0 0 0-0.68z"/>
  <path d="m125.44 60.38-50.99-29.56a0.4 0.4 0 0 1-0.2-0.35v-29.08a0.4 0.4 0 0 1 0.6-0.34l102.34 59.33a0.4 0.4 0 0 1 0 0.7l-102.34 59.3a0.4 0.4 0 0 1-0.6-0.34v-29.07a0.4 0.4 0 0 1 0.2-0.35l50.99-29.54a0.4 0.4 0 0 0 0-0.7z"/>
 </g>
</svg>
