<?xml version="1.0" encoding="UTF-8"?>
<svg width="260.93" height="201.66" version="1.0" viewBox="0 0 195.7 151.25" xmlns="http://www.w3.org/2000/svg" zoomAndPan="magnify">
 <defs>
  <clipPath id="0736277630">
   <path d="m308.4 175.14h107.25v150h-107.25z"/>
  </clipPath>
  <clipPath id="ca9770248a">
   <path d="m219.61 173.82h98.594v150h-98.594z"/>
  </clipPath>
 </defs>
 <rect x="-396.98" y="189.15" width="1350" height="450" fill="#fff"/>
 <g transform="translate(-219.61 -173.82)" clip-path="url(#0736277630)">
  <path d="m377.28 186.16c0.11328-0.52344 0-1.0625-0.0234-1.5977s0.0742-1.1289 0.48438-1.4688c0.17578-0.14453 0.40625-0.24219 0.51172-0.44141 0.10937-0.20312 0.0586-0.44922 0.0351-0.67968-0.0781-0.85547 0.3086-1.6758 0.69141-2.4492 0.74609-1.5078 1.6172-3.1172 3.1484-3.8203 1.1914-0.54687 2.5664-0.4414 3.875-0.32421 0.67968 0.0625 1.3594 0.12109 2.043 0.18359 0.46485 0.043 0.9336 0.082 1.3867 0.19922 0.42578 0.10547 0.83594 0.27734 1.2344 0.46484 0.98047 0.45313 1.9258 0.99219 2.8125 1.6094 0.95703 0.66406 1.6641 1.6406 2.0156 2.75 0.36719 1.1641 0.67578 2.3476 0.92578 3.5391 0.10938 0.50391 0.19922 1.0391 0.0234 1.5234-0.23437 0.64843-0.89062 1.0547-1.1758 1.6797-0.25 0.54297-0.17578 1.1875 0.043 1.75 0.21484 0.5586 0.5625 1.0547 0.875 1.5664 0.11328 0.18359 0.22656 0.39063 0.20703 0.60547-0.0469 0.51562-0.72266 0.67187-1.2383 0.64453-0.51563-0.0273-1.168-0.0234-1.3828 0.44531-0.0937 0.20313-0.0703 0.44922-0.15625 0.65625-0.19141 0.45313-0.76953 0.51953-1.2812 0.48047-0.1211-8e-3 -0.24219 0.0703-0.25782 0.19141-0.0664 0.49609 0.55079 1.0352 0.51954 1.5976-0.0156 0.23047-0.14063 0.4375-0.26172 0.63672-0.58985 0.95703-1.0664 2.1367-2.3984 1.707-1.0859-0.35546-1.832-0.90625-3.0195-1.1094-0.41016-0.0703-0.84375 4e-3 -1.1836 0.24219-0.88281 0.625-0.58984 1.7812-0.65625 2.7656-0.0351 0.51172-0.18359 1.0156-0.20312 1.5312-0.0195 0.51563 0.11328 1.0781 0.51953 1.3945 0.34766 0.26953 0.81641 0.30469 1.2578 0.35157 1.168 0.125 2.3242 0.41015 3.4219 0.84375 3.6133 1.4258 5.0352 5.8086 7.2734 8.9844 0.96484 1.375 2.0078 2.6875 3.0508 4.0039 0.97656 1.2305 1.9531 2.4609 2.9258 3.6875 0.0976 0.12109 0.22656 0.25781 0.3789 0.22656 0.1211-0.0273 0.19532-0.15234 0.25-0.26172 1.2578-2.5547 2.1055-5.2891 2.9453-8.0117 0.26953-0.875 0.54297-1.7539 0.8164-2.6328 0.40235-1.3125 0.8125-2.6602 0.74219-4.0312-0.0703-1.2969-0.57031-2.5391-0.67187-3.832-0.16016-2.0625 0.69531-4.1094 0.48437-6.1641-0.0234-0.23438-0.0586-0.47657 8e-3 -0.70704 0.0664-0.22656 0.27344-0.43359 0.50782-0.41015 0.26562 0.0312 0.42187 0.3164 0.65625 0.4414 0.29296 0.15625 0.64453 0.0391 0.97265 4e-3 0.32422-0.0391 0.7461 0.0937 0.77344 0.42188 0.62109-0.34375 1.5156-0.16407 1.793 0.48828 0.33984-0.21875 0.82031-0.0273 1.0469 0.30859 0.22266 0.33594 0.25391 0.76172 0.25391 1.1641 0.41797-0.0937 0.82812 0.25782 0.95703 0.66016 0.12891 0.40625 0.0508 0.84375-0.0234 1.2617-0.15234 0.8125-0.30078 1.625-0.45312 2.4375-0.17188 0.92578-0.34766 1.8672-0.75781 2.7148-0.25391 0.52344-0.59375 1-0.84766 1.5234-0.36719 0.75781-0.54688 1.5859-0.70703 2.4102-0.79688 4.1445-1.1328 8.3867-2.2617 12.453-0.43359 1.5625-0.98047 3.0898-1.5273 4.6172-0.39844 1.1055-0.79297 2.2148-1.1914 3.3242-0.0703 0.19922-0.14453 0.40234-0.28516 0.55859-0.42578 0.47656-1.1992 0.30859-1.7969 0.0781-4.5078-1.7461-8.3125-4.8828-12.035-7.9688-0.53906 0.52343-1.1016 1.0469-1.6562 1.5547-0.73828 0.67578-0.83594 1.6484-1.043 2.5664-0.69922 3.1055-2.8125 5.5625-3.8789 8.5195-0.92188 2.5547-1.4492 5.2969-2.9258 7.5742 3.2891 2.5273 6.0547 5.3516 9.0781 8.1914 1.0508 0.98437 2.0859 1.9883 3.0117 3.0898 0.94141 1.125 1.7617 2.3438 2.6875 3.4766 0.80469 0.98438 1.6836 1.9024 2.5234 2.8555 0.51562 0.58594 1.0195 1.1875 1.5234 1.7891 0.75782 0.90235 1.5156 1.8086 2.2734 2.7109 0.92578 1.1094 1.8672 2.2344 2.4688 3.5469 0.80078 1.7383-0.4414 3.75-1.4726 5.3633s-2.332 3.043-3.3867 4.6406c-1.0078 1.5234-1.7812 3.1875-2.5508 4.8438-0.47266 1.0234-0.94922 2.0469-1.4258 3.0742-1.5938 3.4375-3.9141 6.5469-5.8359 9.8164-1.918 3.2695-3.5938 6.7617-4.1406 10.512-0.13281 0.90234 1.1289 1.4062 1.2344 2.3125 0.0391 0.34375-0.0899 0.6914-0.0352 1.0352 0.0625 0.37891 0.34375 0.70313 0.375 1.0898 0.0586 0.67578-0.62891 1.1523-0.94141 1.7539-0.1914 0.36719-0.23828 0.78906-0.28515 1.2031-0.0859 0.7539-0.17188 1.5078-0.26172 2.2617-0.0977 0.88671-0.19922 1.7891-0.043 2.6641 0.27344 1.5 1.2617 2.75 2.1562 3.9805 0.30859 0.42187 0.625 0.89843 0.58594 1.418-0.0195 0.24218-0.11328 0.47265-0.22266 0.6875-0.25 0.5039-0.625 1-1.1719 1.125-0.57813 0.13671-1.1562-0.1875-1.6406-0.52735-2.6836-1.8945-4.5508-4.707-6.3555-7.4531-0.8164-1.2422-1.6562-2.5586-1.7734-4.0391-1.375-0.082-2.3086-1.3867-3.0352-2.5547-0.97656-1.5781-1.9531-3.1562-2.9297-4.7344-0.11328-0.18359-0.23437-0.39844-0.17187-0.60937 0.0547-0.1836 0.23047-0.29688 0.39843-0.39453 1.5352-0.89844 3.1367-1.6758 4.7383-2.4531 0.75781-0.36719 1.5469-0.74609 2.3867-0.73047 0.26563 4e-3 0.53516 0.043 0.78907-0.0234 0.73437-0.1914 0.96093-1.1133 1.4844-1.6641 1.2852-1.3438 0.96875-3.3594 1.582-5.1133 0.71875-2.0547 1.4375-4.1133 1.9922-6.2188 0.36328-1.3828 0.65625-2.7852 1.0742-4.1523 1.2773-4.1758 3.6836-7.8906 5.6328-11.801 0.35938-0.72266 0.22656-1.8125-0.32031-2.4062-2.3125-2.4922-5.5273-3.8906-8.625-5.2812-3.3047-1.4805-6.5938-3.0312-9.6133-5.0312-3.4961 5.9844-9.8594 9.7734-15.098 14.312-1.9531 1.6953-3.8008 3.5117-5.5312 5.4336-0.875 0.97266-1.7305 1.9844-2.7891 2.75-1.2852 0.92969-2.8047 1.457-4.2695 2.0586-3.5352 1.4531-6.8672 3.4024-9.8594 5.7774-1.6953 1.3438-3.2852 2.6797-4.918 4.0156-2.9922 2.4453-7.5039 6.8398-10.016 9.7774l-2.9336 3.4297c-0.22266 0.26172-0.46094 0.60938-0.31641 0.91797 0.10156 0.21875 0.34766 0.32031 0.49609 0.50781 0.29297 0.3711 0.0977 0.91407-0.1289 1.3281-0.94141 1.7148-2.3164 3.1875-3.957 4.2461-0.76563 0.4961-1.625 0.9336-2.1094 1.707-0.32031 0.51563-0.4375 1.1289-0.55078 1.7227-0.34375 1.8242-0.69141 3.6445-1.0352 5.4648-0.92578-0.0625-1.9336-0.19531-2.582-0.85937-0.6289-0.64063-0.7539-1.6055-0.84765-2.4961-0.15625-1.4805-0.3086-2.9609-0.46485-4.4453-0.0976-0.9375-0.19531-1.9062 0.0664-2.8125 0.25-0.86328 0.80859-1.6172 1.0117-2.4922 0.23047-0.98438-0.0156-2.0078-0.17188-3.0039-0.3125-1.9688-0.29297-3.9727-0.26953-5.9648 0.0117-0.78125 0.11328-1.7266 0.82031-2.0703 0.33203-0.16015 0.72266-0.14062 1.0898-0.11328l7.0508 0.48828c0.58594 0.043 1.1523-0.20312 1.5273-0.65625l8.4961-10.332c0.68359-0.82812 1.3672-1.6641 1.9453-2.5703 0.24219-0.37891 0.46484-0.77344 0.70312-1.1562 0.6875-1.0977 1.5156-2.1094 2.4531-3 1.5547-1.4805 3.4023-2.6211 5.1367-3.8672 0.77734-0.53515 1.5547-1.0703 2.332-1.6055 0.17578-0.13281 0.17969-0.28515 0.38672-0.39453 4.8281-2.5664 8.3281-7.0781 11.062-11.816 0.49609-0.86329 0.97656-1.7422 1.6211-2.5039 0.52344-0.61719 1.1445-1.1445 1.7305-1.6992 1.1445-1.0859 2.1719-2.293 3.0586-3.5977 0.97266-1.4336 0.95313-3.5547 1.0586-5.2852 0.18359-3.0312 0-5.7422 1.1172-8.6602 0.66016-1.7344 1.5977-3.3633 2.7695-4.8008 1.207-1.4805 2.8203-2.5547 4.0195-4.0234 0.85547-1.0508 1.375-2.3242 1.8633-3.5898 0.58594-1.5312 1.1445-3.1016 1.3008-4.7344 0.18359-1.9023-0.18359-3.8125-0.54688-5.6914-0.30468-1.5625-0.60546-3.1289-0.91015-4.6953-0.14844-0.76563-0.29688-1.5352-0.44531-2.3008-0.23438-1.2148-0.24219-2.5312-0.46875-3.7461-0.1211-0.66016-0.2461-1.3242-0.3711-1.9883-0.1289-0.69922-0.26953-1.4297-1.3945-1.6992-0.55859-0.13672-1.1445-0.10156-1.6992 0.0508-4.2852 1.1836-8.5742 2.3711-12.863 3.5547-0.27344 0.0742-0.56641 0.16016-0.74609 0.38281-0.1875 0.22656-0.21094 0.53906-0.23047 0.83203-0.0937 1.625-0.1875 3.2461-0.28516 4.8711-0.0625 1.0547-0.125 2.1172-0.0195 3.168 0.125 1.2344 0.47656 2.4336 0.77344 3.6367 0.52734 2.1484 0.9375 4.4609 2.4453 6.082 0.50391 0.54687 1.1133 0.98828 1.6328 1.5195 0.81641 0.83984 1.3828 1.8828 1.9375 2.9102 0.4336 0.80078 0.86328 1.6016 1.2969 2.3984 0.0586 0.10938 0.11719 0.22266 0.10937 0.34375-0.0195 0.30859-0.42187 0.4375-0.54297 0.71875-0.14453 0.32031 0.11329 0.75391-0.11718 1.0195-0.0859 0.0977-0.21875 0.14063-0.33985 0.17578-1.4961 0.45703-3.1914 0.89844-4.5586 0.14063-0.32031 0.50781-1.1055 0.52344-1.6055 0.1914-0.50391-0.33203-0.78906-0.89843-1.0547-1.4375-0.57422-1.168-1.1562-2.3555-1.3984-3.6367-0.17188-0.91797-0.16797-1.8555-0.26563-2.7852-0.60156-5.7812-3.7109-10.352-4.7695-16.77-0.1875-1.1289-0.22656-2.1602-0.35156-3.3008-0.10157-0.96875-0.17578-2.043 0.42578-2.8047 0.33203-0.41797 0.82422-0.67578 1.3008-0.91797 6.1406-3.1367 12.297-6.2812 18.73-8.7695 2.1328-0.82422 4.3633-1.5898 6.6484-1.5 1.4648 0.0586 2.9141 0.46875 4.3867 0.24609 0.27735-0.043 0.54297-0.13281 0.79297-0.2539 0.1211-0.0586 0.2461-0.1211 0.32032-0.23047 0.0937-0.13672 0.0976-0.31641 0.082-0.48047-0.1211-1.2266-0.99219-2.2344-1.4766-3.3672-0.0976-0.23047-0.18359-0.47265-0.17578-0.72265 0.0117-0.80079 0.85547-1.2812 1.3711-1.8984 0.42578-0.50781 0.64843-1.1836 0.60547-1.8477" fill="#fefce6"/>
 </g>
 <g transform="translate(-219.61 -173.82)" clip-path="url(#ca9770248a)">
  <path d="m317.8 224.89s0.45312-0.29297 0.38672-0.67969-0.45313-1.2226-0.45313-1.2226 0.35547-0.38282 0.0977-0.89844c-0.25782-0.51563-0.44922-0.74219-0.54688-0.80469-0.0976-0.0664 0.19141-1 0.16016-1.418-0.0312-0.41797-0.48047-1.8672-1.1914-1.2852-0.70703 0.57812-1.3203 0.73828-2.0898 1.0625-0.77344 0.32031-1.0625-0.38672-1.0312-0.58203 0.0312-0.19141 0.54687-0.57813 0.58203-0.76954 0.0312-0.19531 0.41797-1.5156-0.0977-1.8047-0.51562-0.28907-0.93359 0.22656-1.2226 0.38672-0.28907 0.16015-0.80469 0.87109-1.1914 1.8008-0.38672 0.93359-1.418 2.5117-1.4805 3.3476-0.0625 0.83594 0.61328 1.8359-0.73828 1.8359s-2.3203 0.32031-2.5781-0.19531c-0.25391-0.51172-0.73829-0.41797-0.67579-1.832 0.0664-1.418 0-3.668 0.42188-4.1836 0.41797-0.51562 2.3164-2.832 1.7344-5.7617-0.57812-2.9258-0.48046-3.7305-0.48046-4.3438 0-0.60937 0.70703-3.4726-1.6094-4.3125-2.3164-0.83593-2.543-0.93359-2.7031-1.1914-0.16016-0.25391-1.5781-0.83594-1.8984-0.96485-0.32031-0.1289-1.2109-0.79296-1.2109-0.79296s0-1.4375 0.59766-2.1875c0.60156-0.75 1.0508-0.64454 1.3086-0.64454s2.2773 0.41016 2.5117-0.98828c0.23437-1.3906 0.40625-1.5859 0.81641-1.8438 0.40625-0.25781 0.40625-0.70703 0.40625-0.83593 0-0.12891-0.12891-0.30079 0.34375-0.57813 0.47265-0.28125 0.75-0.60156 0.75-1.2031 0-0.60157 0.1289-1.0312 0.44921-1.1797 0.32422-0.14844 2.168-0.0859 1.4805-1.7383-0.68359-1.6524-1.5-2.7461-0.75-3.7305 0.75-0.98828 0.41016-2.2539 0.25782-2.793-0.14844-0.53516 0-1.6289 0-1.7578 0-0.12891 0.8164-1.0508-0.0195-2.207-0.83984-1.1602-0.55859 0.44921-0.77343-0.30079-0.21485-0.7539-0.043-0.71093-1.0742-2.1016-1.0274-1.3984-0.0625-2.1484-5.168-2.3633s-9.2266 1.9102-10.469 3.4961c-1.2461 1.5898-2.6602 2.082-2.7891 4.2695-0.12891 2.1914 0.46875 4.8281 1.1133 6.0078s1.5039 3.2617 1.6758 4.8281c0.16797 1.5664-0.625 3.3477-3.5 3.6484s-4.2266 0.40625-4.8672 0.55469c-0.64453 0.15234-0.25781 0.88281-2.4883 0.28125-2.2344-0.60156-5.9883 0.34375-7.875 1.8242s-2.8516 2.1016-3.3477 2.7031c-0.49218 0.59766-1.0703 1.5-2.6172 2.1211-1.543 0.625-4.375 2.6602-6.6719 4.8711-2.2969 2.2109-4.5898 3.9023-5.0195 4.7188s-0.83594 2.3164-0.34375 3.668c0.49219 1.3555 1.418 3.9922 3.3906 5.8789 1.9726 1.8906 3.9258 3.7109 5.4492 4.8086 1.5234 1.0938 2.5078 1.9492 2.2539 3-0.25781 1.0547-0.42969 2.2539 0.0625 3.0898s0.70703 1.5039 0.87891 1.8906c0.17187 0.38281 0.51562 0.8125 0.77343 0.89843 0.25782 0.0859 0.60157 0 0.60157 0s0.49218 0.36719 0.83593 0.36719 0.90235-0.21484 0.90235-0.21484 0.44922 0.25781 0.62109 0.36328c0.17188 0.10547 1.4805-0.12891 1.543-0.19141 0.0664-0.0664 0.41016 0.11719 0.58203 0.21875 0.16797 0.10157 1.4141-0.15234 1.1992 0.25391 0 0-3.3242 2.7656-4.6328 5.7695-1.3086 3.0039-2.1445 5.082-1.332 7.8086 0.8164 2.7227 1.6094 3.1953 1.375 3.7969-0.23828 0.60156 0.1914 1.7148-2.5547 4.5273-2.7461 2.8086-3.5625 4.0977-4.0117 4.5469s-1.0508 1.0938-0.94141 1.2226c0.10547 0.12891 0.16797 0.34375 0.043 0.5586-0.1289 0.21484-1.4375 2.4688-3.2734 5.043-1.8359 2.5742-2.4141 4.3438-3.6992 4.8242-1.2891 0.48437-6.0195 1.9336-9.3008 4.5391s-4.5078 3.7344-5.1836 5.2773-1.5117 1.8984-4.0859 4.0859c-2.5742 2.1875-4.6328 3.9922-5.6641 4.668-1.0273 0.67578-1.0938 1.0273-1.7695 0.96484-0.67578-0.0664-0.89844-0.0195-1.8672 8e-3 -0.96484 0.0234-5.6289-1.1992-6.1758 0.47266-0.54687 1.6758-0.38672 5.0547 0.16016 6.5664 0.54687 1.5117 0.93359 2.9609 0.54687 5.8242-0.38672 2.8633-0.0312 4.9883 1.3516 7.207 1.3828 2.2226 2.7031 3.2852 3.8633 2.7695 1.1562-0.51563 0.96484-1.707 0.73828-3.25-0.22656-1.5469-0.61328-4.9258 0.35547-5.8242 0.96484-0.90234 1.4805-1.4805 1.7031-1.9648 0.22656-0.48047 1.418-1.8008 1.0938-0.83594-0.32031 0.96484-1.6094 2.2539-1.2852 2.1875 0.32031-0.0625 1.0273-0.83594 0.99609-1.0274-0.0312-0.19531 0.77344-2.2539 0.96484-2.3516 0.19532-0.0976 1.2578-0.48047 0.96485-0.83594-0.28907-0.35546-0.64063-0.70703-0.9961-0.60937-0.35547 0.0937 0.41797-0.45313 0.41797-0.45313s2.4453-3.1523 4.5391-4.5352c2.0898-1.3867 7.1445-4.5703 10.457-6.1172 3.3164-1.543 6.3398-4.0195 7.6602-4.9883 1.3203-0.96484 4.1524-2.957 6.0508-3.0234 1.8984-0.0625 4.5039-0.51562 5.4688-1.6406 0.96485-1.125 1.1602-2.4141 3.1524-3.1211 1.9961-0.70703 7.3711-4.4414 7.9492-5.375 0 0 0.32421 0.0312 0.70703-0.44922 0.38672-0.48437 2.3203-2.4805 2.6406-2.8984s1.9961-2.1875 2.1562-2.4141c0.16016-0.22265 0.25781-0.96484 0.64453-0.67578 0.38672 0.29297 1.9609 2.125 3.0547 2.8672 1.0938 0.73828 1.5117 1.4805 1.6758 1.4805 0.16016 0-0.0664-0.0352 0.16016 0 0.22656 0.0312 1.6094 1.4805 3.3789 2.7031 1.7695 1.2227 2.2188 1.9922 1.8672 2.5391-0.35547 0.54687-3.9258 4.5078-5.2461 9.2383s-1.8359 8.5898-2.1875 11.199c-0.35547 2.6055-1.8984 8.2695-1.9648 8.5273-0.0625 0.25781-0.77343 2.7031-1.0938 3.1523-0.32031 0.44922-1.0312 0.0977-1.3828 0.86719-0.35547 0.77344-0.83594 2.9297-1.2226 3.3477-0.38672 0.41797-2.0274 3.5078-1.4805 4.2148 0.54687 0.71094 2.0898 1.418 3.5391 1.8672 1.4492 0.45312 2.3477 0.48437 4.2148 1.2891 1.8672 0.80469 6.3398 2.9922 10.234 3.0547 3.8945 0.0664 5.3086-0.73828 5.3086-1.8633 0-1.1289-0.22265-1.5469-1.7031-2.0274-1.4805-0.48437-2.125-0.51562-4.25-2.2852s-1.3516-2.125-2.8008-3.9609c-1.4453-1.832-0.83594-2.1875-0.60938-1.4453 0.22656 0.73828 0.96484 1.0938 0.90234 0.54687-0.0664-0.54687-0.45312-1.4805-0.64453-1.5117-0.19531-0.0351 0.35157 0.76954-0.0664 0.51172-0.41797-0.25781-0.76953-0.76953-0.86719-0.89843-0.0977-0.12891-0.74219-1.1602-0.83594-1-0.0976 0.16015-0.32422-1.2539-0.0976-2.8945 0.22656-1.6406 0.70703-6.0508 2.7031-9.5898s4.1836-6.8867 5.7617-10.137c1.5742-3.25 3.668-6.5312 4.9531-7.7539 1.2891-1.2266 2.3828-2.0274 2.4805-4.2188 0.0937-2.1875 0.0937-4.9219-0.67578-6.8867-0.77344-1.9609-1.8984-5.2774-3.1875-7.3984 0 0 0.48438 0.19141-0.35547-0.83984-0.83593-1.0274-3.3438-4.6953-4.2148-5.7578-0.86719-1.0625-3.4102-4.2812-4.0859-5.0195-0.67578-0.74219-1.3516-1.8047-1.3516-1.8984 0-0.0156-4e-3 -0.0234-4e-3 -0.0234 0.0195-0.0312 0.0586-0.10547 0.13282-0.26953 0.22656-0.48047 2.9297-4.7617 3.6055-6.6289 0.67579-1.8633 1.6406-3.9258 1.7031-4.2461 0.0664-0.32032 0.28906-1.4492 0.61328-1.8359 0.32031-0.38281 1.4453-1.9297 1.4805-2.0898 0.0312-0.16015-0.0352-0.41796 0.25781-0.32031 0.28906 0.0937 3.8594 0.60938 7.5274-1.3516 3.668-1.9648 3.543-2.3203 5.1523-2.4805 1.6055-0.16016 3.9883-1.125 4.375-1.2852 0.38672-0.16015 1.1562-0.35546 1.1914-1.0625 0.0312-0.70703-0.38672-0.99609-0.38672-0.99609zm-41.332 7.6992c-0.0859 0.40625-0.98438 2.4453-0.98438 2.4453-0.30078-0.8789-1.3945-2.0586-1.8477-3.5391-0.44921-1.4805-2.0156-2.0156-2.832-2.6797-0.8125-0.66797-0.89843-0.73047-1.2109-1.5039-0.3125-0.77344-1.9844-2.6602-2.7578-3.3047-0.76953-0.64453-2.2734-2.2305-2.7461-4.5234-0.46875-2.2969-1.1562-2.8125-1.4141-3.4141-0.25782-0.60156 0.70703-0.8125 1.2656-0.92188 0.5586-0.10547 1.8008-0.62109 3.9258-1.2656s3.4961-1.8242 3.9258-2.1875c0.42969-0.36328 0.40625-0.12891 0.83594 1.0273 0.42969 1.1602 0.73047 1.375 2.0586 3.543 1.332 2.1641 1.3516 5.3203 1.332 7.6992-0.0234 2.3828 0.0625 3.2852 0.34375 4.7422 0.27734 1.457 0.1914 3.4766 0.10547 3.8828" fill="#fefce6"/>
 </g>
</svg>
